<?xml version="1.0" encoding="iso-8859-1"?>
<!-- Generator: Adobe Illustrator 19.0.0, SVG Export Plug-In . SVG Version: 6.00 Build 0)  -->
<svg version="1.1" id="Capa_1" xmlns="http://www.w3.org/2000/svg" xmlns:xlink="http://www.w3.org/1999/xlink" x="0px" y="0px"
	 viewBox="0 0 109.294 109.294" style="enable-background:new 0 0 109.294 109.294;" xml:space="preserve">
<g>
	<path d="M54.648,48.141L101.063,19.2c-0.505-0.08-1.017-0.132-1.542-0.132H9.775c-0.525,0-1.038,0.054-1.541,0.132L54.648,48.141z"
		/>
	<path d="M57.569,59.331c-0.062,0.04-0.13,0.066-0.194,0.104c-0.067,0.037-0.139,0.073-0.206,0.107
		c-0.365,0.188-0.741,0.339-1.125,0.439c-0.04,0.011-0.078,0.017-0.116,0.025c-0.423,0.099-0.848,0.16-1.274,0.16
		c-0.001,0-0.003,0-0.004,0s-0.003,0-0.005,0c-0.426,0-0.852-0.06-1.273-0.16c-0.039-0.009-0.079-0.015-0.118-0.025
		c-0.384-0.101-0.757-0.252-1.124-0.439c-0.069-0.034-0.139-0.07-0.207-0.107c-0.065-0.037-0.132-0.063-0.196-0.104L0.153,27.172
		C0.06,27.715,0,28.271,0,28.843v51.609c0,5.398,4.375,9.774,9.774,9.774H99.52c5.398,0,9.774-4.376,9.774-9.774V28.843
		c0-0.572-0.059-1.127-0.154-1.671L57.569,59.331z"/>
</g>
<g>
</g>
<g>
</g>
<g>
</g>
<g>
</g>
<g>
</g>
<g>
</g>
<g>
</g>
<g>
</g>
<g>
</g>
<g>
</g>
<g>
</g>
<g>
</g>
<g>
</g>
<g>
</g>
<g>
</g>
</svg>
